<svg xmlns="http://www.w3.org/2000/svg" width="1670" height="1255" viewBox="0 0 1670 1255" font-family="Georgia, 'Times New Roman', serif">
<rect x="0" y="0" width="1670" height="1255" rx="18" fill="#faf8f3" stroke="#d9d4c7"/>
<text x="835.0" y="52" text-anchor="middle" font-size="30" font-weight="bold" fill="#2a2a2a">Traceability to “Hear and Obey God” — the 48 Foundational Laws on the Periodic Table</text>
<text x="835.0" y="84" text-anchor="middle" font-size="17" fill="#6b6b6b">an interpretive overlay on the Scale × Dimension grid · from the 2026-06-15 diagnostic, extended to FL.XLVII–XLVIII on 2026-09-04 · DRAFT</text>
<rect x="190" y="108" width="22" height="22" rx="5" fill="#dfeedd" stroke="#3c7a3a" stroke-width="1.5"/>
<text x="220" y="125" font-size="16" fill="#333">Direct</text>
<rect x="530" y="108" width="22" height="22" rx="5" fill="#f6e6c3" stroke="#b7791f" stroke-width="1.5"/>
<text x="560" y="125" font-size="16" fill="#333">Adjacent (one step removed)</text>
<rect x="870" y="108" width="22" height="22" rx="5" fill="#ececec" stroke="#9a9a9a" stroke-width="1.5"/>
<text x="900" y="125" font-size="16" fill="#333">Less (a different mechanism)</text>
<text x="1210" y="125" font-size="16" fill="#333">★ = swing law (tier could defensibly move)</text>
<text x="310.0" y="177" text-anchor="middle" font-size="16" font-weight="bold" fill="#2a2a2a">Group I</text>
<text x="310.0" y="196" text-anchor="middle" font-size="15" fill="#6b6b6b">Spirit</text>
<text x="550.0" y="177" text-anchor="middle" font-size="16" font-weight="bold" fill="#2a2a2a">Group II</text>
<text x="550.0" y="196" text-anchor="middle" font-size="15" fill="#6b6b6b">Heart</text>
<text x="790.0" y="177" text-anchor="middle" font-size="16" font-weight="bold" fill="#2a2a2a">Group III</text>
<text x="790.0" y="196" text-anchor="middle" font-size="15" fill="#6b6b6b">Soul</text>
<text x="1030.0" y="177" text-anchor="middle" font-size="16" font-weight="bold" fill="#2a2a2a">Group IV</text>
<text x="1030.0" y="196" text-anchor="middle" font-size="15" fill="#6b6b6b">Mind &amp; Will</text>
<text x="1270.0" y="177" text-anchor="middle" font-size="16" font-weight="bold" fill="#2a2a2a">Group V</text>
<text x="1270.0" y="196" text-anchor="middle" font-size="15" fill="#6b6b6b">Body &amp; Action</text>
<text x="1510.0" y="177" text-anchor="middle" font-size="16" font-weight="bold" fill="#2a2a2a">Group VI</text>
<text x="1510.0" y="196" text-anchor="middle" font-size="15" fill="#6b6b6b">Structural Frame</text>
<text x="176" y="276.0" text-anchor="end" font-size="16" font-weight="bold" fill="#2a2a2a">Period 0</text>
<text x="176" y="296.0" text-anchor="end" font-size="13" fill="#6b6b6b">Scale-invariant</text>
<rect x="190" y="205" width="240" height="150" fill="#ffffff" stroke="#cfc9bb"/>
<rect x="198" y="224.5" width="224" height="24" rx="6" fill="#dfeedd" stroke="#3c7a3a" stroke-width="1.4"/>
<text x="206" y="241.0" font-size="13" fill="#1f4d1e">XV  Hardening  ★</text>
<rect x="198" y="253.5" width="224" height="24" rx="6" fill="#dfeedd" stroke="#3c7a3a" stroke-width="1.4"/>
<text x="206" y="270.0" font-size="13" fill="#1f4d1e">XL  Abiding-Fruitfulness  ★</text>
<rect x="198" y="282.5" width="224" height="24" rx="6" fill="#f6e6c3" stroke="#b7791f" stroke-width="1.4"/>
<text x="206" y="299.0" font-size="10.5" fill="#5a3c07">XLII  Kingdom-Confrontation Authority  ★</text>
<rect x="198" y="311.5" width="224" height="24" rx="6" fill="#dfeedd" stroke="#3c7a3a" stroke-width="1.4"/>
<text x="206" y="328.0" font-size="13" fill="#1f4d1e">XLIV  Sign-as-Revelation</text>
<rect x="430" y="205" width="240" height="150" fill="#ffffff" stroke="#cfc9bb"/>
<rect x="438" y="253.5" width="224" height="24" rx="6" fill="#dfeedd" stroke="#3c7a3a" stroke-width="1.4"/>
<text x="446" y="270.0" font-size="13" fill="#1f4d1e">XXXV  Trust-Substrate  ★</text>
<rect x="438" y="282.5" width="224" height="24" rx="6" fill="#f6e6c3" stroke="#b7791f" stroke-width="1.4"/>
<text x="446" y="299.0" font-size="11.5" fill="#5a3c07">XXXVII  Worship Alignment  ★</text>
<rect x="670" y="205" width="240" height="150" fill="#ffffff" stroke="#cfc9bb"/>
<rect x="678" y="268.0" width="224" height="24" rx="6" fill="#ececec" stroke="#9a9a9a" stroke-width="1.4"/>
<text x="686" y="284.5" font-size="11.5" fill="#4a4a4a">XXXVIII  Soul-Restoration  ★</text>
<rect x="910" y="205" width="240" height="150" fill="#ffffff" stroke="#cfc9bb"/>
<rect x="918" y="268.0" width="224" height="24" rx="6" fill="#dfeedd" stroke="#3c7a3a" stroke-width="1.4"/>
<text x="926" y="284.5" font-size="13" fill="#1f4d1e">XLVII  Word&#x27;s-Efficacy</text>
<rect x="1150" y="205" width="240" height="150" fill="#ffffff" stroke="#cfc9bb"/>
<rect x="1158" y="210.0" width="224" height="24" rx="6" fill="#dfeedd" stroke="#3c7a3a" stroke-width="1.4"/>
<text x="1166" y="226.5" font-size="13" fill="#1f4d1e">VI  Hear-and-Obey</text>
<rect x="1158" y="239.0" width="224" height="24" rx="6" fill="#ececec" stroke="#9a9a9a" stroke-width="1.4"/>
<text x="1166" y="255.5" font-size="13" fill="#4a4a4a">IX  Generosity-Provision</text>
<rect x="1158" y="268.0" width="224" height="24" rx="6" fill="#dfeedd" stroke="#3c7a3a" stroke-width="1.4"/>
<text x="1166" y="284.5" font-size="13" fill="#1f4d1e">XVI  Bondage  ★</text>
<rect x="1158" y="297.0" width="224" height="24" rx="6" fill="#ececec" stroke="#9a9a9a" stroke-width="1.4"/>
<text x="1166" y="313.5" font-size="10.5" fill="#4a4a4a">XXXIX  Surrender-Multiplication  ★</text>
<rect x="1158" y="326.0" width="224" height="24" rx="6" fill="#f6e6c3" stroke="#b7791f" stroke-width="1.4"/>
<text x="1166" y="342.5" font-size="13" fill="#5a3c07">XLVIII  Image-Bearing  ★</text>
<rect x="1390" y="205" width="240" height="150" fill="#ffffff" stroke="#cfc9bb"/>
<rect x="1398" y="224.5" width="224" height="24" rx="6" fill="#ececec" stroke="#9a9a9a" stroke-width="1.4"/>
<text x="1406" y="241.0" font-size="13" fill="#4a4a4a">I  Sowing-Reaping</text>
<rect x="1398" y="253.5" width="224" height="24" rx="6" fill="#ececec" stroke="#9a9a9a" stroke-width="1.4"/>
<text x="1406" y="270.0" font-size="13" fill="#4a4a4a">XXIII  Sabbath Rest</text>
<rect x="1398" y="282.5" width="224" height="24" rx="6" fill="#ececec" stroke="#9a9a9a" stroke-width="1.4"/>
<text x="1406" y="299.0" font-size="10.5" fill="#4a4a4a">XLI  Defilement-Cleansing Reversal</text>
<rect x="1398" y="311.5" width="224" height="24" rx="6" fill="#f6e6c3" stroke="#b7791f" stroke-width="1.4"/>
<text x="1406" y="328.0" font-size="10.5" fill="#5a3c07">XLIII  Cross-Boundary Faith-Access  ★</text>
<text x="176" y="426.0" text-anchor="end" font-size="16" font-weight="bold" fill="#2a2a2a">Period 1</text>
<text x="176" y="446.0" text-anchor="end" font-size="13" fill="#6b6b6b">Individual</text>
<rect x="190" y="355" width="240" height="150" fill="#ffffff" stroke="#cfc9bb"/>
<rect x="198" y="403.5" width="224" height="24" rx="6" fill="#dfeedd" stroke="#3c7a3a" stroke-width="1.4"/>
<text x="206" y="420.0" font-size="13" fill="#1f4d1e">VII  Drawing-Near  ★</text>
<rect x="198" y="432.5" width="224" height="24" rx="6" fill="#dfeedd" stroke="#3c7a3a" stroke-width="1.4"/>
<text x="206" y="449.0" font-size="13" fill="#1f4d1e">X  Ask-Seek-Knock  ★</text>
<rect x="430" y="355" width="240" height="150" fill="#ffffff" stroke="#cfc9bb"/>
<rect x="438" y="374.5" width="224" height="24" rx="6" fill="#f6e6c3" stroke="#b7791f" stroke-width="1.4"/>
<text x="446" y="391.0" font-size="13" fill="#5a3c07">III  Heart-Throne</text>
<rect x="438" y="403.5" width="224" height="24" rx="6" fill="#f6e6c3" stroke="#b7791f" stroke-width="1.4"/>
<text x="446" y="420.0" font-size="13" fill="#5a3c07">VIII  Desire-for-God</text>
<rect x="438" y="432.5" width="224" height="24" rx="6" fill="#dfeedd" stroke="#3c7a3a" stroke-width="1.4"/>
<text x="446" y="449.0" font-size="13" fill="#1f4d1e">XIII  Pure-Heart Vision  ★</text>
<rect x="438" y="461.5" width="224" height="24" rx="6" fill="#f6e6c3" stroke="#b7791f" stroke-width="1.4"/>
<text x="446" y="478.0" font-size="13" fill="#5a3c07">XIV  Vanity-of-Substitutes</text>
<rect x="670" y="355" width="240" height="150" fill="#ffffff" stroke="#cfc9bb"/>
<rect x="678" y="403.5" width="224" height="24" rx="6" fill="#ececec" stroke="#9a9a9a" stroke-width="1.4"/>
<text x="686" y="420.0" font-size="13" fill="#4a4a4a">IV  Humility-Exaltation</text>
<rect x="678" y="432.5" width="224" height="24" rx="6" fill="#ececec" stroke="#9a9a9a" stroke-width="1.4"/>
<text x="686" y="449.0" font-size="13" fill="#4a4a4a">XXII  Endurance-Hope</text>
<rect x="910" y="355" width="240" height="150" fill="#ffffff" stroke="#cfc9bb"/>
<rect x="918" y="418.0" width="224" height="24" rx="6" fill="#f6e6c3" stroke="#b7791f" stroke-width="1.4"/>
<text x="926" y="434.5" font-size="13" fill="#5a3c07">XI  Renewal-of-Mind</text>
<rect x="1150" y="355" width="240" height="150" fill="#ffffff" stroke="#cfc9bb"/>
<rect x="1158" y="418.0" width="224" height="24" rx="6" fill="#f6e6c3" stroke="#b7791f" stroke-width="1.4"/>
<text x="1166" y="434.5" font-size="13" fill="#5a3c07">II  Confession-Restoration</text>
<rect x="1390" y="355" width="240" height="150" fill="#f3f1ec" stroke="#cfc9bb"/>
<text x="176" y="576.0" text-anchor="end" font-size="16" font-weight="bold" fill="#2a2a2a">Period 2</text>
<text x="176" y="596.0" text-anchor="end" font-size="13" fill="#6b6b6b">Dyadic / small group</text>
<rect x="190" y="505" width="240" height="150" fill="#f3f1ec" stroke="#cfc9bb"/>
<rect x="430" y="505" width="240" height="150" fill="#f3f1ec" stroke="#cfc9bb"/>
<rect x="670" y="505" width="240" height="150" fill="#f3f1ec" stroke="#cfc9bb"/>
<rect x="910" y="505" width="240" height="150" fill="#f3f1ec" stroke="#cfc9bb"/>
<rect x="1150" y="505" width="240" height="150" fill="#ffffff" stroke="#cfc9bb"/>
<rect x="1158" y="553.5" width="224" height="24" rx="6" fill="#ececec" stroke="#9a9a9a" stroke-width="1.4"/>
<text x="1166" y="570.0" font-size="13" fill="#4a4a4a">V  Reciprocal Forgiveness</text>
<rect x="1158" y="582.5" width="224" height="24" rx="6" fill="#ececec" stroke="#9a9a9a" stroke-width="1.4"/>
<text x="1166" y="599.0" font-size="13" fill="#4a4a4a">XII  Honor-Authority</text>
<rect x="1390" y="505" width="240" height="150" fill="#ffffff" stroke="#cfc9bb"/>
<rect x="1398" y="568.0" width="224" height="24" rx="6" fill="#ececec" stroke="#9a9a9a" stroke-width="1.4"/>
<text x="1406" y="584.5" font-size="10.5" fill="#4a4a4a">XXXIV  Marriage Covenant Architecture</text>
<text x="176" y="726.0" text-anchor="end" font-size="16" font-weight="bold" fill="#2a2a2a">Period 3</text>
<text x="176" y="746.0" text-anchor="end" font-size="13" fill="#6b6b6b">Community / congregation</text>
<rect x="190" y="655" width="240" height="150" fill="#ffffff" stroke="#cfc9bb"/>
<rect x="198" y="718.0" width="224" height="24" rx="6" fill="#dfeedd" stroke="#3c7a3a" stroke-width="1.4"/>
<text x="206" y="734.5" font-size="11.5" fill="#1f4d1e">XX  Gathered-Body Discernment</text>
<rect x="430" y="655" width="240" height="150" fill="#ffffff" stroke="#cfc9bb"/>
<rect x="438" y="718.0" width="224" height="24" rx="6" fill="#f6e6c3" stroke="#b7791f" stroke-width="1.4"/>
<text x="446" y="734.5" font-size="10.5" fill="#5a3c07">XXXII  Communal Worship Alignment  ★</text>
<rect x="670" y="655" width="240" height="150" fill="#ffffff" stroke="#cfc9bb"/>
<rect x="678" y="703.5" width="224" height="24" rx="6" fill="#ececec" stroke="#9a9a9a" stroke-width="1.4"/>
<text x="686" y="720.0" font-size="10.5" fill="#4a4a4a">XXIX  Corporate Emotional Integration</text>
<rect x="678" y="732.5" width="224" height="24" rx="6" fill="#ececec" stroke="#9a9a9a" stroke-width="1.4"/>
<text x="686" y="749.0" font-size="13" fill="#4a4a4a">XXX  Communal Soul-Care</text>
<rect x="910" y="655" width="240" height="150" fill="#ffffff" stroke="#cfc9bb"/>
<rect x="918" y="718.0" width="224" height="24" rx="6" fill="#dfeedd" stroke="#3c7a3a" stroke-width="1.4"/>
<text x="926" y="734.5" font-size="10.5" fill="#1f4d1e">XXXI  Corporate Scriptural Reception</text>
<rect x="1150" y="655" width="240" height="150" fill="#ffffff" stroke="#cfc9bb"/>
<rect x="1158" y="674.5" width="224" height="24" rx="6" fill="#ececec" stroke="#9a9a9a" stroke-width="1.4"/>
<text x="1166" y="691.0" font-size="11.5" fill="#4a4a4a">XVIII  Bitter-Root Community</text>
<rect x="1158" y="703.5" width="224" height="24" rx="6" fill="#ececec" stroke="#9a9a9a" stroke-width="1.4"/>
<text x="1166" y="720.0" font-size="11.5" fill="#4a4a4a">XXIV  Confession-in-Community  ★</text>
<rect x="1158" y="732.5" width="224" height="24" rx="6" fill="#ececec" stroke="#9a9a9a" stroke-width="1.4"/>
<text x="1166" y="749.0" font-size="11.5" fill="#4a4a4a">XXV  Restoration-of-the-Erring</text>
<rect x="1158" y="761.5" width="224" height="24" rx="6" fill="#ececec" stroke="#9a9a9a" stroke-width="1.4"/>
<text x="1166" y="778.0" font-size="11.5" fill="#4a4a4a">XLVI  Communal Truth-Telling</text>
<rect x="1390" y="655" width="240" height="150" fill="#ffffff" stroke="#cfc9bb"/>
<rect x="1398" y="718.0" width="224" height="24" rx="6" fill="#ececec" stroke="#9a9a9a" stroke-width="1.4"/>
<text x="1406" y="734.5" font-size="10.5" fill="#4a4a4a">XXXIII  Community Polity Structure</text>
<text x="176" y="876.0" text-anchor="end" font-size="16" font-weight="bold" fill="#2a2a2a">Period 4</text>
<text x="176" y="896.0" text-anchor="end" font-size="13" fill="#6b6b6b">Generational / historical</text>
<rect x="190" y="805" width="240" height="150" fill="#ffffff" stroke="#cfc9bb"/>
<rect x="198" y="868.0" width="224" height="24" rx="6" fill="#ececec" stroke="#9a9a9a" stroke-width="1.4"/>
<text x="206" y="884.5" font-size="10.5" fill="#4a4a4a">XIX  Spirit Anointing Transmission</text>
<rect x="430" y="805" width="240" height="150" fill="#ffffff" stroke="#cfc9bb"/>
<rect x="438" y="853.5" width="224" height="24" rx="6" fill="#ececec" stroke="#9a9a9a" stroke-width="1.4"/>
<text x="446" y="870.0" font-size="13" fill="#4a4a4a">XVII  Substitution-Cascade</text>
<rect x="438" y="882.5" width="224" height="24" rx="6" fill="#ececec" stroke="#9a9a9a" stroke-width="1.4"/>
<text x="446" y="899.0" font-size="13" fill="#4a4a4a">XXI  Household Formation</text>
<rect x="670" y="805" width="240" height="150" fill="#f7f5f0" stroke="#cfc9bb"/>
<text x="790.0" y="885.0" text-anchor="middle" font-size="12" fill="#9a9a9a" font-style="italic">empty by design</text>
<rect x="910" y="805" width="240" height="150" fill="#ffffff" stroke="#cfc9bb"/>
<rect x="918" y="868.0" width="224" height="24" rx="6" fill="#f6e6c3" stroke="#b7791f" stroke-width="1.4"/>
<text x="926" y="884.5" font-size="11.5" fill="#5a3c07">XXVI  Doctrinal Calcification  ★</text>
<rect x="1150" y="805" width="240" height="150" fill="#ffffff" stroke="#cfc9bb"/>
<rect x="1158" y="868.0" width="224" height="24" rx="6" fill="#ececec" stroke="#9a9a9a" stroke-width="1.4"/>
<text x="1166" y="884.5" font-size="10.5" fill="#4a4a4a">XXVII  Thick Practice Transmission</text>
<rect x="1390" y="805" width="240" height="150" fill="#ffffff" stroke="#cfc9bb"/>
<rect x="1398" y="868.0" width="224" height="24" rx="6" fill="#ececec" stroke="#9a9a9a" stroke-width="1.4"/>
<text x="1406" y="884.5" font-size="10.5" fill="#4a4a4a">XXVIII  Generational Nested Structure</text>
<text x="176" y="1026.0" text-anchor="end" font-size="16" font-weight="bold" fill="#2a2a2a">Period 5</text>
<text x="176" y="1046.0" text-anchor="end" font-size="13" fill="#6b6b6b">Cosmic / eschatological</text>
<rect x="190" y="955" width="240" height="150" fill="#ffffff" stroke="#cfc9bb"/>
<rect x="198" y="1018.0" width="224" height="24" rx="6" fill="#dfeedd" stroke="#3c7a3a" stroke-width="1.4"/>
<text x="206" y="1034.5" font-size="11.5" fill="#1f4d1e">XLV  Voice-Reaches-into-Death</text>
<rect x="430" y="955" width="240" height="150" fill="#ffffff" stroke="#cfc9bb"/>
<rect x="438" y="1018.0" width="224" height="24" rx="6" fill="#ececec" stroke="#9a9a9a" stroke-width="1.4"/>
<text x="446" y="1034.5" font-size="13" fill="#4a4a4a">XXXVI  Eschatological Glory</text>
<rect x="670" y="955" width="240" height="150" fill="#f3f1ec" stroke="#cfc9bb"/>
<rect x="910" y="955" width="240" height="150" fill="#f3f1ec" stroke="#cfc9bb"/>
<rect x="1150" y="955" width="240" height="150" fill="#f3f1ec" stroke="#cfc9bb"/>
<rect x="1390" y="955" width="240" height="150" fill="#f3f1ec" stroke="#cfc9bb"/>
<text x="190" y="1145" font-size="16" fill="#2a2a2a">Tally: Direct 13 · Adjacent 11 · Less 24  —  strict line 13 / 35 · inclusive line 24 / 24</text>
<text x="190" y="1171" font-size="14" fill="#6b6b6b">Cells follow the Vol 5 Periodic Table reference list. V1.Open Miracle Frame (an Exploration, not a Foundational Law) also sits at P0/GI and is omitted here. Chips inside a cell are in numeral order, not rank.</text>
<text x="190" y="1195" font-size="14" fill="#6b6b6b">The Periodic Table is organized by Scale × Dimension, not by relation to hear-and-obey; this colouring is a judgment laid over it, not something the catalog asserts.</text>
</svg>